<svg xmlns="http://www.w3.org/2000/svg" viewBox="0 0 133 70.82"><title>logo</title><path d="M435,359.57" transform="translate(-370 -293)" style="fill:none;stroke:#333;stroke-miterlimit:10;stroke-width:3px"/><path d="M501.36,359.57" transform="translate(-370 -293)" style="fill:none;stroke:#333;stroke-miterlimit:10;stroke-width:3px"/><polyline points="53 66.5 1.5 66.5 1.5 1.5 131.5 1.5 131.5 67" style="fill:none;stroke:#333;stroke-miterlimit:10;stroke-width:3px"/><path d="M385.93,348l17.76-42h11.14l17.75,42H421l-3.27-8H400.46l-3.2,8Zm18.5-17h9.42l-4.68-11.94Z" transform="translate(-370 -293)" style="fill:#333"/><path d="M464.35,348.7A22,22,0,0,1,449,311.32a21.51,21.51,0,0,1,15.81-6.3,20.59,20.59,0,0,1,17.64,8.88L474,320.5q-3.9-4.86-9.24-4.86a9.12,9.12,0,0,0-7.2,3.24,12.74,12.74,0,0,0,0,16,9.16,9.16,0,0,0,7.2,3.21,10,10,0,0,0,5.22-1.29,17.11,17.11,0,0,0,4.26-3.81l8.76,6.24a24.62,24.62,0,0,1-7.68,7A21.83,21.83,0,0,1,464.35,348.7Z" transform="translate(-370 -293)" style="fill:#333"/><text transform="translate(56.2 69.29)" style="font-size:9px;font-family:GothamPro-Medium, Gotham Pro;font-weight:500"><tspan style="letter-spacing:-0.015028211805555556em">c</tspan><tspan x="5" y="0">ommi</tspan><tspan x="30.59" y="0" style="letter-spacing:-0.009982638888888888em">s</tspan><tspan x="35" y="0">sion out</tspan></text></svg>